<?xml version="1.0" encoding="utf-8"?>
<!-- Generator: Adobe Illustrator 18.1.0, SVG Export Plug-In . SVG Version: 6.00 Build 0)  -->
<svg version="1.1" id="Ebene_1" xmlns="http://www.w3.org/2000/svg" xmlns:xlink="http://www.w3.org/1999/xlink" x="0px" y="0px"
	 viewBox="0 0 301 296.3" enable-background="new 0 0 301 296.3" xml:space="preserve">
<polygon fill="#010202" points="14.6,273.7 14,274.8 117.5,274.8 118,273.7 "/>
<polygon fill="#010202" points="11.2,280.4 10.7,281.5 114.1,281.5 114.7,280.4 "/>
<polygon fill="#010202" points="7.9,287.1 7.3,288.2 110.8,288.2 111.3,287.1 "/>
<polygon fill="#010202" points="4.8,293.3 4.5,293.9 107.9,293.9 108.2,293.3 "/>
<polygon fill="#010202" points="18.2,266.5 17.3,268.3 120.8,268.3 121.7,266.5 "/>
<polygon fill="#010202" points="21.8,259.4 20.9,261.2 124.4,261.2 125.2,259.4 "/>
<polygon fill="#010202" points="24.9,253.4 24,255.1 127.4,255.1 128.3,253.4 "/>
<polygon fill="#010202" points="28.6,245.8 27.4,248.3 130.8,248.3 132.1,245.8 "/>
<polygon fill="#010202" points="31.9,239.4 30.6,241.9 134.1,241.9 135.3,239.4 "/>
<polygon fill="#010202" points="35.4,232.4 34.1,234.9 137.6,234.9 138.8,232.4 "/>
<polygon fill="#010202" points="38.9,225.4 37.3,228.6 140.7,228.6 142.4,225.4 "/>
<polygon fill="#010202" points="42.4,218.6 40.7,221.8 144.2,221.8 145.8,218.6 "/>
<polygon fill="#010202" points="45.8,211.8 44.1,215 147.6,215 149.2,211.8 "/>
<polygon fill="#010202" points="49.3,204.8 47.4,208.6 150.8,208.6 152.7,204.8 "/>
<polygon fill="#010202" points="52.6,198.1 50.8,201.9 154.2,201.9 156.1,198.1 "/>
<polygon fill="#010202" points="56.1,191.2 54,195.4 157.5,195.4 159.6,191.2 "/>
<polygon fill="#010202" points="59.7,184.2 57.3,189 160.7,189 163.1,184.2 "/>
<polygon fill="#010202" points="63.2,177.2 60.8,182 164.2,182 166.6,177.2 "/>
<polygon fill="#010202" points="66.5,170.6 64.1,175.4 167.5,175.4 169.9,170.6 "/>
<polygon fill="#010202" points="69.9,163.9 67.5,168.7 170.9,168.7 173.3,163.9 "/>
<polygon fill="#010202" points="73.3,157.1 70.9,161.9 174.3,161.9 176.8,157.1 "/>
<polygon fill="#010202" points="76.9,150 74.1,155.5 177.5,155.5 180.3,150 "/>
<polygon fill="#010202" points="80.2,143.3 77.5,148.8 180.9,148.8 183.7,143.3 "/>
<polygon fill="#010202" points="83.7,136.4 80.9,141.9 184.4,141.9 187.2,136.4 "/>
<polygon fill="#010202" points="87.1,129.7 84.3,135.2 187.7,135.2 190.5,129.7 "/>
<polygon fill="#010202" points="90.7,122.6 87.6,128.6 191.1,128.6 194.1,122.6 "/>
<polygon fill="#010202" points="94,115.9 91,121.9 194.4,121.9 197.5,115.9 "/>
<polygon fill="#010202" points="97.5,109 94.5,115 197.9,115 201,109 "/>
<polygon fill="#010202" points="206.2,112 206.2,112 114.7,293.9 297.6,293.9 "/>
<polygon fill="#010202" points="97.9,108.3 151,2.7 202.8,105.3 201.2,108.3 "/>
</svg>
